<?xml version="1.0" encoding="utf-8"?>
<!-- Generator: Adobe Illustrator 24.1.2, SVG Export Plug-In . SVG Version: 6.00 Build 0)  -->
<svg version="1.1" id="Layer_1" xmlns="http://www.w3.org/2000/svg" xmlns:xlink="http://www.w3.org/1999/xlink" x="0px" y="0px"
	 viewBox="0 0 261 54" style="enable-background:new 0 0 261 54;" xml:space="preserve">
<style type="text/css">
	.st0{fill-rule:evenodd;clip-rule:evenodd;fill:#E0F1F8;}
	.st1{fill-rule:evenodd;clip-rule:evenodd;fill:#9ABFDA;}
	.st2{fill-rule:evenodd;clip-rule:evenodd;fill:#454B53;}
	.st3{fill-rule:evenodd;clip-rule:evenodd;fill:#5F8BAC;}
</style>
<g>
	<path class="st0" d="M50.05,3.01c-1.96-1.98-5.4-1.51-7.37,0.47L32.65,13.55l-18.6-6.99c-1.78-0.47-3.57-1.06-5.78,1.17
		c-1.13,1.13-3.47,3.5,0,6.99l12.75,10.51l-8.3,8.33L4.98,31.6c-1.15-0.3-1.92-0.07-2.51,0.59c-0.3,0.37-2.45,1.98-0.95,3.5
		l10.07,5.96l5.93,10.14c1.09,1.1,2.1,0.41,3.48-0.91c0.88-0.88,0.68-1.34,0.42-2.62l-1.75-7.73l8.24-8.32l10.42,12.83
		c3.47,3.5,5.81,1.14,6.94,0c2.21-2.23,1.61-4.04,1.15-5.83l-6.89-18.74l9.99-10.08C51.51,8.4,52.01,4.99,50.05,3.01L50.05,3.01z"/>
	<polygon class="st1" points="32.47,13.55 27.59,12.15 17.17,22.13 20.84,25.22 	"/>
	<polygon class="st1" points="39.37,20.47 41.21,25.15 30.86,35.06 27.74,32.21 	"/>
	<path class="st2" d="M18.76,53.83c-0.79,0-1.52-0.33-2.17-0.98c-0.09-0.09-0.17-0.19-0.23-0.3l-5.74-9.8l-9.74-5.77
		c-0.11-0.06-0.21-0.14-0.3-0.23c-0.8-0.81-0.96-1.65-0.96-2.22c0.01-1.51,1.15-2.62,1.7-3.16c0.05-0.05,0.1-0.1,0.13-0.13
		c1.03-1.15,2.35-1.5,4.01-1.07l6.92,1.74l6.54-6.57L7.44,15.87c-0.04-0.03-0.07-0.07-0.11-0.1c-3-3.02-3-6.08,0-9.1
		c1.36-1.37,2.81-2.04,4.42-2.04c0.94,0,1.8,0.23,2.56,0.43l0.22,0.06c0.05,0.01,0.1,0.03,0.15,0.05l17.71,6.66l9.35-9.39
		c1.35-1.36,3.3-2.18,5.21-2.18c1.65,0,3.17,0.61,4.26,1.71c2.66,2.68,1.88,7.06-0.51,9.48l-9.32,9.41l6.56,17.85
		c0.02,0.05,0.03,0.1,0.04,0.15l0.06,0.23c0.47,1.81,1.11,4.29-1.6,7.03c-0.79,0.8-2.26,2.28-4.44,2.28c0,0,0,0,0,0
		c-1.55,0-3.1-0.77-4.6-2.27c-0.03-0.04-0.07-0.07-0.1-0.11l-9.39-11.55l-6.5,6.57l1.63,7.25c0.25,1.19,0.49,2.3-0.88,3.69
		C21.16,52.91,20.08,53.83,18.76,53.83L18.76,53.83z M2.59,34.53l9.87,5.84c0.22,0.13,0.4,0.31,0.53,0.53l5.81,9.93
		c0.16-0.06,0.51-0.27,1.3-1.03c0.15-0.16,0.19-0.23,0.19-0.24c0-0.06-0.08-0.41-0.14-0.7l-0.06-0.31l-1.74-7.7
		c-0.11-0.5,0.04-1.02,0.39-1.38l8.24-8.32c0.3-0.3,0.7-0.46,1.12-0.44c0.42,0.02,0.81,0.22,1.07,0.54l10.38,12.77
		c0.9,0.9,1.73,1.35,2.45,1.35c0.95,0,1.76-0.81,2.34-1.4c1.52-1.53,1.26-2.52,0.83-4.17l-0.04-0.16l-6.87-18.67
		c-0.2-0.55-0.07-1.16,0.34-1.57L48.6,9.33c1.36-1.37,1.9-3.87,0.51-5.27c-0.68-0.69-1.55-0.83-2.16-0.83
		c-1.14,0-2.3,0.49-3.11,1.31L33.81,14.6c-0.41,0.41-1.02,0.54-1.56,0.34l-18.68-7c-0.64-0.17-1.25-0.33-1.81-0.33
		c-0.54,0-1.29,0.13-2.32,1.17c-1.41,1.42-2.24,2.6-0.05,4.84l12.69,10.46c0.32,0.27,0.52,0.66,0.54,1.08
		c0.02,0.42-0.14,0.83-0.43,1.13l-8.3,8.33c-0.37,0.37-0.9,0.52-1.41,0.39l-7.74-1.95c-0.22-0.06-0.4-0.08-0.55-0.08
		c-0.23,0-0.35,0.05-0.5,0.22c-0.07,0.08-0.17,0.19-0.3,0.31C2.77,34.1,2.61,34.39,2.59,34.53L2.59,34.53z"/>
	<path class="st2" d="M27.9,33.79c-0.38,0-0.76-0.15-1.05-0.44c-0.58-0.58-0.58-1.52,0-2.11l11.76-11.84c0.58-0.58,1.52-0.58,2.1,0
		c0.58,0.58,0.58,1.52,0,2.11L28.95,33.35C28.66,33.64,28.28,33.79,27.9,33.79L27.9,33.79z"/>
	<path class="st2" d="M20.85,27.03c-0.38,0-0.76-0.15-1.05-0.44c-0.58-0.58-0.58-1.53,0-2.11l11.91-11.99c0.58-0.58,1.52-0.58,2.1,0
		c0.58,0.58,0.58,1.53,0,2.11L21.9,26.59C21.61,26.88,21.23,27.03,20.85,27.03L20.85,27.03z"/>
	<polygon class="st3" points="67.43,9.93 60.59,9.93 60.59,3.94 80.82,3.94 80.82,9.93 73.98,9.93 73.98,45.85 67.43,45.85 
		67.43,9.93 	"/>
	<path class="st3" d="M83.96,3.94h9.7c3.37,0,5.83,0.79,7.38,2.36c1.55,1.58,2.32,4,2.32,7.27v2.57c0,4.35-1.43,7.1-4.29,8.26v0.12
		c1.59,0.48,2.71,1.46,3.36,2.93c0.65,1.48,0.98,3.45,0.98,5.93v7.36c0,1.2,0.04,2.16,0.12,2.9c0.08,0.74,0.28,1.47,0.6,2.19h-6.67
		c-0.24-0.68-0.4-1.32-0.48-1.92c-0.08-0.6-0.12-1.68-0.12-3.23v-7.66c0-1.92-0.31-3.25-0.92-4.01s-1.68-1.14-3.18-1.14h-2.26v17.96
		h-6.55V3.94L83.96,3.94z M92.89,21.9c1.31,0,2.29-0.34,2.95-1.02c0.65-0.68,0.98-1.82,0.98-3.41v-3.23c0-1.52-0.27-2.61-0.8-3.29
		c-0.54-0.68-1.38-1.02-2.53-1.02h-2.98V21.9H92.89L92.89,21.9z"/>
	<path class="st3" d="M112.99,3.94h8.87l6.78,41.91h-6.55l-1.19-8.32v0.12h-7.44l-1.19,8.2h-6.07L112.99,3.94L112.99,3.94z
		 M120.13,31.96l-2.92-20.72h-0.12l-2.86,20.72H120.13L120.13,31.96z"/>
	<polygon class="st3" points="128.4,3.94 135,3.94 139.29,36.45 139.41,36.45 143.69,3.94 149.7,3.94 143.39,45.85 134.71,45.85 
		128.4,3.94 	"/>
	<polygon class="st3" points="152.85,3.94 170.7,3.94 170.7,9.93 159.39,9.93 159.39,21.01 168.38,21.01 168.38,26.99 159.39,26.99 
		159.39,39.87 170.7,39.87 170.7,45.85 152.85,45.85 152.85,3.94 	"/>
	<polygon class="st3" points="174.44,3.94 180.98,3.94 180.98,39.87 191.75,39.87 191.75,45.85 174.44,45.85 174.44,3.94 	"/>
	<path class="st1" d="M200.22,3.94h8.87l6.78,41.91h-6.55l-1.19-8.32v0.12h-7.44l-1.19,8.2h-6.07L200.22,3.94L200.22,3.94z
		 M207.36,31.96l-2.92-20.72h-0.12l-2.86,20.72H207.36L207.36,31.96z"/>
	<path class="st1" d="M219.02,3.94h9.64c3.25,0,5.69,0.88,7.32,2.63s2.44,4.33,2.44,7.72v4.13c0,3.39-0.81,5.97-2.44,7.72
		c-1.63,1.76-4.07,2.63-7.32,2.63h-3.09v17.06h-6.55V3.94L219.02,3.94z M228.66,22.8c1.07,0,1.88-0.3,2.41-0.9
		c0.54-0.6,0.8-1.62,0.8-3.05v-4.97c0-1.44-0.27-2.45-0.8-3.05c-0.54-0.6-1.34-0.9-2.41-0.9h-3.09V22.8H228.66L228.66,22.8z"/>
	<path class="st1" d="M242,3.94h9.64c3.25,0,5.69,0.88,7.32,2.63s2.44,4.33,2.44,7.72v4.13c0,3.39-0.81,5.97-2.44,7.72
		c-1.63,1.76-4.07,2.63-7.32,2.63h-3.09v17.06H242V3.94L242,3.94z M251.64,22.8c1.07,0,1.88-0.3,2.41-0.9
		c0.54-0.6,0.8-1.62,0.8-3.05v-4.97c0-1.44-0.27-2.45-0.8-3.05c-0.54-0.6-1.34-0.9-2.41-0.9h-3.09V22.8H251.64L251.64,22.8z"/>
</g>
</svg>
